HIERARCHY
ROOT hip
{
	OFFSET 0.000000 0.000000 0.000000 
	CHANNELS 6 Xposition Yposition Zposition Xrotation Zrotation Yrotation
	JOINT abdomen
	{
		OFFSET 0.000000 3.402643 0.000000 
		CHANNELS 3 Xrotation Zrotation Yrotation
		JOINT chest
		{
			OFFSET 0.000000 8.438565 -0.680529 
			CHANNELS 3 Xrotation Zrotation Yrotation
			JOINT neck
			{
				OFFSET 0.000000 10.207942 -0.272212 
				CHANNELS 3 Xrotation Zrotation Yrotation
				JOINT head
				{
					OFFSET 0.000000 3.130431 0.000000 
					CHANNELS 3 Xrotation Zrotation Yrotation
					End Site
					{
						OFFSET 0.000000 3.130435 0.000000 
					}
				}
			}
			JOINT lCollar
			{
				OFFSET 3.470700 6.669187 -0.816635 
				CHANNELS 3 Yrotation Zrotation Xrotation
				JOINT lShldr
				{
					OFFSET 3.198488 0.000000 0.000000 
					CHANNELS 3 Zrotation Yrotation Xrotation
					JOINT lForeArm
					{
						OFFSET 10.139888 0.000000 0.000000 
						CHANNELS 3 Yrotation Zrotation Xrotation
						JOINT lHand
						{
							OFFSET 8.370511 0.000000 0.000000 
							CHANNELS 3 Zrotation Yrotation Xrotation
							End Site
							{
								OFFSET 4.083176 0.000000 0.000000 
							}
						}
					}
				}
			}
			JOINT rCollar
			{
				OFFSET -3.470700 6.669187 -0.816635 
				CHANNELS 3 Yrotation Zrotation Xrotation
				JOINT rShldr
				{
					OFFSET -3.198488 0.000000 0.000000 
					CHANNELS 3 Zrotation Yrotation Xrotation
					JOINT rForeArm
					{
						OFFSET -10.139888 0.000000 0.000000 
						CHANNELS 3 Yrotation Zrotation Xrotation
						JOINT rHand
						{
							OFFSET -8.370511 0.000000 0.000000 
							CHANNELS 3 Zrotation Yrotation Xrotation
							End Site
							{
								OFFSET -4.083176 0.000000 0.000000 
							}
						}
					}
				}
			}
		}
	}
	JOINT lThigh
	{
		OFFSET 5.308129 -1.633274 1.361059 
		CHANNELS 3 Xrotation Zrotation Yrotation
		JOINT lShin
		{
			OFFSET -2.041588 -20.007561 0.000000 
			CHANNELS 3 Xrotation Zrotation Yrotation
			JOINT lFoot
			{
				OFFSET 0.000000 -19.190928 -1.224953 
				CHANNELS 3 Xrotation Yrotation Zrotation
				End Site
				{
					OFFSET 0.000000 -2.449906 4.627600 
				}
			}
		}
	}
	JOINT rThigh
	{
		OFFSET -5.308129 -1.633274 1.361059 
		CHANNELS 3 Xrotation Zrotation Yrotation
		JOINT rShin
		{
			OFFSET 2.041588 -20.007561 0.000000 
			CHANNELS 3 Xrotation Zrotation Yrotation
			JOINT rFoot
			{
				OFFSET 0.000000 -19.190928 -1.224953 
				CHANNELS 3 Xrotation Yrotation Zrotation
				End Site
				{
					OFFSET 0.000000 -2.449906 4.627600 
				}
			}
		}
	}
}
MOTION
Frames: 6
Frame Time: 0.016667
3.438010 35.157597 121.617180 7.343160 -8.311150 -28.313400 -21.481501 4.460800 5.486730 12.234000 -1.352790 3.313060 -0.937869 1.684345 -0.064675 5.426510 5.044310 1.111300 2.000000 -2.000000 0.000000 -75.457199 -7.949690 -167.824005 85.088402 -0.226555 0.136261 0.077103 -0.092039 -167.770996 -2.000000 2.000000 0.000000 72.063103 -20.029900 -163.164993 -96.777802 0.199866 0.116307 -0.054408 0.001751 -137.546997 -54.038311 19.375139 -3.936152 63.658455 1.218067 3.959227 -11.815304 0.193047 1.271051 -6.481599 -1.735465 -9.982693 57.646065 -1.780497 -3.685561 -31.099726 -19.664700 -13.108409 
3.445289 35.295658 121.920494 7.765680 -8.700020 -27.940701 -21.664900 4.635200 5.367510 12.253500 -1.372190 3.286120 -1.074421 1.719344 -0.241810 5.358130 5.103170 1.116420 2.000000 -2.000000 0.000000 -75.467697 -9.600580 -168.035004 86.836502 -0.222394 0.136554 0.071177 -0.088386 -170.348999 -2.000000 2.000000 0.000000 71.486702 -20.353600 -162.522003 -97.334396 0.198642 0.116156 -0.054434 0.003364 -138.123001 -54.281445 19.913561 -3.238328 63.796001 1.198474 3.961859 -11.971300 0.248235 1.191055 -5.715416 -0.803739 -9.662729 55.720879 -1.917295 -3.588812 -31.483276 -19.655193 -13.257376 
3.428585 35.437092 122.283348 8.011770 -8.656220 -28.177299 -21.766701 4.719900 5.539690 12.605000 -1.421750 3.382100 -1.222503 1.680384 -0.460117 5.260400 5.181670 1.089890 2.000000 -2.000000 0.000000 -75.351303 -11.241600 -168.207993 88.311096 -0.218879 0.136703 -179.925995 -179.908005 8.097850 -2.000000 2.000000 0.000000 71.076401 -20.608500 -162.082993 -97.685997 0.197870 0.116054 -0.054458 0.004348 -138.475006 -54.200279 20.627731 -1.176872 63.836861 1.169255 3.981057 -11.628855 1.132591 1.185922 -4.872765 -0.454608 -8.694484 53.842159 -2.085220 -3.480049 -31.121944 -20.286936 -13.473878 
3.383313 35.533592 122.542854 8.312210 -8.388790 -28.058201 -21.931601 4.671930 5.551200 12.790800 -1.364330 3.379350 -1.355867 1.478393 -0.471085 5.191640 5.152660 1.004990 2.000000 -2.000000 0.000000 -75.176498 -12.766100 -168.632004 89.727097 -0.215501 0.136760 -179.925995 -179.906998 7.795120 -2.000000 2.000000 0.000000 70.724602 -20.589899 -161.701996 -97.910599 0.197377 0.115987 -0.054499 0.005687 -138.953003 -54.413712 21.014057 1.099743 63.888401 1.118164 4.006567 -11.114230 2.510196 1.144733 -3.942839 -0.168536 -7.706758 52.001022 -2.266368 -3.368281 -31.014980 -20.459881 -13.470269 
3.330514 35.565273 122.777634 8.705230 -8.303050 -27.927700 -22.156700 4.668360 5.542380 12.937100 -1.422880 3.383630 -1.239959 1.582448 -0.683157 5.250830 5.240290 1.012130 2.000000 -2.000000 0.000000 -74.894203 -14.026700 -169.020004 91.084602 -0.212077 0.156266 -179.925995 -179.908005 8.009960 -2.000000 2.000000 0.000000 70.450897 -20.629601 -161.419006 -98.047302 0.197077 0.115945 -0.054526 0.006398 -139.207001 -54.723454 21.446959 2.889054 64.007774 1.072443 4.023106 -10.972775 4.117823 1.153826 -2.988105 0.317267 -6.557017 50.051632 -2.442024 -3.258682 -30.654722 -21.102091 -13.669117 
3.289387 35.557632 122.983215 9.214900 -8.561630 -27.673201 -22.443300 4.745030 5.497050 13.004800 -1.607040 3.377000 -1.139066 1.537539 -0.752140 5.241060 5.250100 0.962617 2.000000 -2.000000 0.000000 -74.660698 -15.140700 -169.328995 92.324799 -0.208907 0.156171 0.073325 -0.091556 -171.716995 -2.000000 2.000000 0.000000 70.216599 -20.776400 -161.281998 -98.164497 0.196820 0.115908 -0.054543 0.006808 -139.352997 -55.268799 21.916901 3.404157 64.302299 1.038224 4.028994 -11.343287 4.309003 1.123417 -1.879740 1.139153 -5.448685 47.954250 -2.604404 -3.128039 -30.475645 -21.819380 -13.976056 
